<?xml version="1.0" encoding="utf-8"?>
<!-- Generator: Adobe Illustrator 22.0.0, SVG Export Plug-In . SVG Version: 6.00 Build 0)  -->
<svg version="1.1" id="Layer_1" xmlns="http://www.w3.org/2000/svg" xmlns:xlink="http://www.w3.org/1999/xlink" x="0px" y="0px"
	 viewBox="0 0 195.3 50" style="enable-background:new 0 0 195.3 50;" xml:space="preserve">
<style type="text/css">
	.st0{fill:#2B00FF;}
</style>
<g>
	<g>
		<path class="st0" d="M1.3,16.4H5v19.2H1.3V16.4z M12.7,23.9c0-1.4-0.3-2.4-1-3.1c-0.7-0.7-1.6-1.1-2.8-1.1c-1.2,0-2.2,0.3-2.9,1
			c-0.7,0.7-1,1.6-1,2.8l-0.4-3.7C5.3,18.6,6,17.7,7,17c1-0.6,2-0.9,3.2-0.9c1.3,0,2.5,0.3,3.4,0.9c0.9,0.6,1.7,1.5,2.2,2.7
			c0.5,1.2,0.7,2.6,0.7,4.2v11.6h-3.8V23.9z M24.2,23.9c0-1.4-0.4-2.4-1.1-3.1c-0.7-0.7-1.7-1.1-3-1.1c-1.2,0-2.1,0.4-2.7,1.1
			c-0.6,0.7-1,1.7-1,3l-0.8-3.7c0.6-1.3,1.4-2.3,2.4-2.9c1-0.7,2.1-1,3.3-1c1.4,0,2.6,0.3,3.5,0.9c1,0.6,1.7,1.5,2.2,2.7
			c0.5,1.2,0.8,2.6,0.8,4.2v11.6h-3.8V23.9z"/>
		<path class="st0" d="M33.8,34.4c-1.2-1-1.8-2.5-1.8-4.5c0-1.9,0.5-3.3,1.6-4.3c1.1-0.9,2.7-1.4,4.9-1.4h5.5l0.3,3h-5.7
			c-1,0-1.7,0.2-2.2,0.7c-0.5,0.4-0.7,1.1-0.7,2c0,1,0.3,1.7,1,2.2c0.6,0.5,1.6,0.7,2.9,0.7c1.4,0,2.5-0.2,3.2-0.5
			c0.7-0.3,1.1-0.8,1.1-1.4l0.4,2.7c-0.3,0.5-0.7,0.9-1.2,1.3c-0.5,0.3-1.1,0.6-1.7,0.7c-0.6,0.2-1.4,0.2-2.2,0.2
			C36.7,35.8,34.9,35.3,33.8,34.4z M43.8,23.4c0-1.3-0.3-2.2-1-2.9c-0.7-0.7-1.6-1-2.9-1c-0.8,0-1.5,0.1-2.2,0.4
			c-0.7,0.2-1.4,0.6-1.9,1l-2.8-1.9c0.7-0.9,1.7-1.6,2.9-2c1.2-0.5,2.5-0.7,4-0.7c1.6,0,2.9,0.3,4.1,0.8c1.1,0.6,2,1.4,2.6,2.4
			c0.6,1.1,0.9,2.3,0.9,3.9v12.3h-3.6V23.4z"/>
		<path class="st0" d="M57.4,35.8c0,0-0.5-0.1-1.5-0.3c-1-0.2-1.9-0.6-2.8-1c-0.9-0.4-1.7-1-2.4-1.7l2.2-2.8c1,0.8,2.1,1.4,3.1,1.8
			c1,0.4,2,0.6,3,0.6c1.5,0,2.6-0.2,3.4-0.7c0.7-0.5,1.1-1.2,1.1-2.1c0-0.6-0.2-1.1-0.6-1.4c-0.4-0.3-0.9-0.5-1.5-0.6
			c-0.6-0.1-1.5-0.2-2.5-0.3c-0.1,0-0.2,0-0.3,0c-0.1,0-0.2,0-0.3,0c0,0-0.1,0-0.1,0c0,0-0.1,0-0.1,0c-1.2-0.1-2.3-0.3-3.2-0.5
			c-0.9-0.3-1.6-0.8-2.2-1.5c-0.6-0.7-0.9-1.8-0.9-3.1c0-1.4,0.3-2.5,0.8-3.4c0.6-0.9,1.4-1.6,2.5-2c1.1-0.4,2.5-0.7,4.1-0.7
			c1,0,1.9,0.1,2.9,0.3c0.9,0.2,1.8,0.5,2.6,0.8c0.8,0.4,1.6,0.8,2.4,1.4l-2.3,2.8c-1-0.6-1.9-1.1-2.8-1.4c-0.9-0.3-1.8-0.5-2.7-0.5
			c-1.3,0-2.2,0.2-2.9,0.7c-0.6,0.4-1,1.1-1,2c0,0.5,0.2,0.9,0.5,1.2c0.4,0.3,0.8,0.4,1.4,0.5c0.6,0.1,1.3,0.2,2.4,0.2
			c0.1,0,0.2,0,0.2,0c0.1,0,0.2,0,0.2,0c0,0,0.1,0,0.1,0s0.1,0,0.1,0c1.3,0.1,2.5,0.3,3.4,0.5c0.9,0.3,1.7,0.8,2.4,1.6
			c0.6,0.8,1,2,1,3.5c0,1.4-0.3,2.5-0.9,3.4c-0.6,0.9-1.5,1.6-2.7,2c-1.2,0.5-2.7,0.7-4.5,0.7C58,35.8,57.4,35.8,57.4,35.8z"/>
		<path class="st0" d="M71.2,8.7h3.8v26.9h-3.8V8.7z M72.8,28.3l9.9-11.9h4.4L72.6,32.7L72.8,28.3z M77.3,24.5l2.4-2.5L88,35.5h-4.1
			L77.3,24.5z"/>
		<path class="st0" d="M91.3,34.4c-1.2-1-1.8-2.5-1.8-4.5c0-1.9,0.5-3.3,1.6-4.3c1.1-0.9,2.7-1.4,4.9-1.4h5.5l0.3,3H96
			c-1,0-1.7,0.2-2.2,0.7c-0.5,0.4-0.7,1.1-0.7,2c0,1,0.3,1.7,1,2.2c0.6,0.5,1.6,0.7,2.9,0.7c1.4,0,2.5-0.2,3.2-0.5
			c0.7-0.3,1.1-0.8,1.1-1.4l0.4,2.7c-0.3,0.5-0.7,0.9-1.2,1.3c-0.5,0.3-1,0.6-1.7,0.7c-0.6,0.2-1.4,0.2-2.2,0.2
			C94.2,35.8,92.4,35.3,91.3,34.4z M101.3,23.4c0-1.3-0.3-2.2-1-2.9c-0.7-0.7-1.6-1-2.9-1c-0.8,0-1.5,0.1-2.2,0.4
			c-0.7,0.2-1.4,0.6-1.9,1l-2.8-1.9c0.7-0.9,1.7-1.6,2.9-2c1.2-0.5,2.5-0.7,4-0.7c1.6,0,2.9,0.3,4.1,0.8c1.1,0.6,2,1.4,2.6,2.4
			c0.6,1.1,0.9,2.3,0.9,3.9v12.3h-3.6V23.4z"/>
		<path class="st0" d="M109.8,16.4h3.8v19.2h-3.8V16.4z M121.4,23.9c0-1.4-0.4-2.4-1.1-3.1c-0.7-0.7-1.7-1.1-3-1.1
			c-1.2,0-2.2,0.3-2.9,1c-0.7,0.7-1,1.6-1,2.8l-0.4-3.7c0.6-1.2,1.4-2.1,2.3-2.7c1-0.6,2-0.9,3.2-0.9c2.1,0,3.7,0.7,4.8,2
			c1.1,1.4,1.7,3.3,1.7,5.8v11.6h-3.8V23.9z"/>
		<path class="st0" d="M130.2,8.7h3.8v3.8h-3.8V8.7z M130.2,16.4h3.8v19.2h-3.8V16.4z"/>
	</g>
	<path class="st0" d="M169.9,0.7c-13.4,0-24.3,10.9-24.3,24.3c0,1.3,0.1,2.5,0.3,3.7c0.3-0.4,0.6-0.8,0.8-1.2
		c1.5-2.1,10.4-15,10.4-15s2.8-4.4,6.5-1.7s-1.3,7.8-2.3,9.1c-0.9,1.3-1.5,2.3-1.5,2.3s-1.8,1.8-0.7,2.8c1.1,0.9,1.5,0.6,2.7-0.9
		c1.1-1.5,3.8-5.5,3.8-5.5s2.1-4,6.3-1.9c0,0,2.8,2.1,0.8,5.3c0,0-0.4,0.9,0.4,1.7c0.8,0.8,1.9-0.4,1.9-0.4s2.7-3,5.7-0.6
		c0,0,2.5,2.1,0.6,4.9c-1.9,2.8-3.8,5.3-3.8,5.3s-3,4-6.1,1.1c-3-2.8,0.4-6.1,0.4-6.1s1.1-1.5,0-2.5c0,0-1.3-0.8-2.1,0.6
		c-0.8,1.3-5.1,7.4-5.1,7.4s-2.5,3.4-5.9,0.6c0,0-2.3-1.1-0.8-4.6c0,0,1.1-0.9,0-2.1c0,0-1.3-0.6-2.1,0.6c-0.8,1.1-2.8,4.1-2.8,4.1
		s-2.2,4-5.1,3.2c3.9,8.3,12.3,14,22,14c13.4,0,24.3-10.9,24.3-24.3S183.4,0.7,169.9,0.7z"/>
</g>
</svg>
